<?xml version="1.0" encoding="UTF-8"?><svg id="Layer_1" xmlns="http://www.w3.org/2000/svg" viewBox="0 0 368.17 284.37"><defs><style>.cls-1{letter-spacing:0em;}.cls-2{fill:#f7b738;}.cls-3{fill:#fb6559;}.cls-4{fill:#6a6969;}.cls-5{fill:#f0effe;}.cls-6{fill:#fc9289;}.cls-7{fill:#e3e1fd;}.cls-8{fill:#e3ddf6;}.cls-9{fill:#e9ad22;}.cls-10{fill:#f1f0fe;}.cls-11{fill:#ef5544;}.cls-12{fill:#fc9188;}.cls-13{fill:#d0cff5;}.cls-14{fill:#474645;}.cls-15{fill:#2e2c2c;}.cls-16{fill:#fff;font-family:MyriadPro-Regular, 'Myriad Pro';font-size:36px;}</style></defs><path class="cls-3" d="M.13,268.72c-.04-1.12-.1-2.24-.1-3.36C.02,182.61,.03,99.86,0,17.11,0,12.01,1.15,7.5,5.04,3.94,8.62,.68,12.94,0,17.55,0c55.03,.02,110.06,0,165.09,.02,17.22,0,34.43,.1,51.65,.15,0,1.75-.02,3.49-.02,5.24,0,82.69,0,165.39-.03,248.08,0,1.83-.13,3.78-.78,5.45-2.68,6.86-8.02,9.76-15.21,9.75-72.7,0-145.4,.01-218.1,.02Zm135.14-93.57c3.94,6.76,13.31,10.52,21.42,8.58,9.35-2.23,15.27-8.56,15.54-17.14,.24-7.73,.1-15.47,.1-23.2,0-14.1,.04-28.19-.02-42.29-.02-6.04-1.83-8.63-6.96-10.51-3.1,.06-6.23-.14-9.3,.22-17.43,2.06-34.84,4.35-52.28,6.37-7.43,.86-10.99,4.44-11,11.9-.02,15.1,0,30.19,0,45.29,0,1.3,0,2.61,0,3.92-2.04-.15-3.52-.37-5-.36-12.37,.05-21.89,10.72-19.37,21.67,2.24,9.72,11.35,15.45,22.74,14.28,9.47-.97,16.71-8.77,16.77-18.33,.09-13.85,0-27.7,.04-41.54,.02-7.19,2.67-10.26,9.77-11.18,9.88-1.27,19.77-2.47,29.66-3.62,4.45-.52,8.99,2.37,9.29,6.8,.5,7.27,.14,14.59,.14,21.88-20.46,.85-30.29,13.45-21.54,27.27ZM86.28,25.32c19.32,0,38.64,.01,57.96,0,4.3,0,6.74-2.06,6.91-5.66,.17-3.67-2.43-6.06-6.81-6.28-.62-.03-1.25,0-1.87,0-37.39,0-74.79,0-112.18,.02-1.47,0-2.97,.18-4.42,.46-2.87,.57-4.13,2.54-4.27,5.34-.2,3.95,2.26,6.12,7.09,6.13,19.2,.02,38.39,0,57.59,0ZM20.11,196.5c0,12.85,0,25.71,0,38.56,0,4.35,2.05,6.71,5.7,6.68,3.61-.03,5.57-2.39,5.57-6.81,0-25.71,0-51.42,0-77.13,0-4.35-2.05-6.71-5.7-6.68-3.61,.03-5.57,2.39-5.57,6.81-.01,12.85,0,25.71,0,38.56ZM173.35,25.31c2.24,0,4.5,.13,6.73-.03,3.24-.24,5.63-2.2,5.97-5.24,.35-3.04-1.37-5.87-4.73-6.13-5.05-.39-10.17-.5-15.21-.05-3.39,.31-4.94,3.12-4.47,6.59,.44,3.24,2.73,4.58,5.71,4.83,1.98,.17,3.99,.03,5.98,.03Z"/><path class="cls-15" d="M250.27,20.83c49.99,1.13,97.02,33.9,112.66,86.23,19.72,65.96-17.92,133.74-84.39,152.08-9.13,2.52-18.84,2.92-28.28,4.31-.05-12.97-.14-25.95-.13-38.92,0-13.47,.1-26.94,.16-40.41,.53,.29,1.22,.46,1.55,.9,5.9,7.68,11.74,15.4,17.63,23.09,7.77,10.16,15.64,20.24,23.3,30.48,1.93,2.58,3.58,2.58,6.23,1.16,12.12-6.48,22.87-14.82,31.53-25.36,6.03-7.34,10.61-15.86,15.8-23.89,1.02-1.58,1.38-2.93-.72-4.37-4.39-3.02-8.51-6.44-12.78-9.65-15.87-11.96-31.75-23.9-47.62-35.84-1.11-8.69-3.26-16.94-9.71-23.41-6.58-8.02-15.36-11.85-25.37-13.33,0-6.61-.02-13.22-.01-19.83,.04-21.08,.09-42.16,.14-63.23Zm85.76,98.85c4.56,.13,6.42-2.47,5.47-5.79-5.16-17.95-15.07-32.93-28.71-45.52-2.59-2.39-5.81-2.74-7.27-.68-1.89,2.65-1.1,5.01,1.19,7.24,3.65,3.56,7.38,7.11,10.58,11.07,7.02,8.69,12.21,18.42,15.56,29.14,.61,1.94,2.43,3.49,3.19,4.54Zm-41.05-53.75c1.59-1.48,3.19-2.38,3.79-3.72,.47-1.06,.2-3.38-.58-3.9-3.56-2.39-7.32-4.56-11.24-6.31-.9-.4-3.19,.83-3.91,1.92-.72,1.09-.9,3.82-.21,4.33,3.72,2.73,7.78,4.99,12.15,7.68Z"/><path class="cls-11" d="M250.3,184.12c-.06,13.47-.16,26.94-.16,40.41,0,12.97,.08,25.95,.13,38.92-.06,2.12-.08,4.24-.18,6.35-.37,8.02-6.22,13.99-14.25,14.54-.87,.06-1.75,.03-2.62,.03-72.07,0-144.14,0-216.21,0-8.95,0-14.76-4.16-16.65-11.97-.28-1.17-.16-2.45-.23-3.67,72.7,0,145.4-.02,218.1-.02,7.19,0,12.53-2.89,15.21-9.75,.65-1.67,.78-3.63,.78-5.45,.04-82.69,.03-165.39,.03-248.08,0-1.75,.02-3.49,.02-5.24,8.28-.62,15.26,5.4,15.76,13.62,.14,2.34,.15,4.69,.22,7.04-.05,21.08-.1,42.16-.14,63.23-.01,6.61,0,13.22,0,19.83,.04,7.82,.08,15.64,.12,23.47-.03,9.66-.05,19.33-.08,28.99,0,6,0,11.99,0,17.99,0,2.02-.01,4.04-.02,6.06,.05,1.24,.1,2.48,.14,3.72Z"/><path class="cls-7" d="M135.27,175.15c-8.75-13.82,1.08-26.42,21.54-27.27,0-7.28,.36-14.61-.14-21.88-.3-4.43-4.85-7.32-9.29-6.8-9.89,1.15-19.78,2.35-29.66,3.62-7.1,.92-9.76,3.99-9.77,11.18-.03,13.85,.05,27.7-.04,41.54-.06,9.56-7.3,17.36-16.77,18.33-11.39,1.17-20.5-4.56-22.74-14.28-2.52-10.94,7.01-21.61,19.37-21.67,1.48,0,2.97,.21,5,.36,0-1.32,0-2.62,0-3.92,0-15.1-.01-30.19,0-45.29,0-7.46,3.57-11.03,11-11.9,17.44-2.02,34.84-4.31,52.28-6.37,3.06-.36,6.2-.16,9.3-.22,0,22.45,.03,44.9,0,67.36-.01,10.36-8.18,18.74-18.34,18.58-3.92-.06-7.83-.9-11.75-1.38Zm-17.37-71.53c-5.13,.72-9.2,1.16-13.2,1.95-.85,.17-1.45,1.56-2.17,2.39,1.03,.85,2.08,2.46,3.08,2.43,3.81-.13,7.66-.56,11.39-1.36,1.51-.32,2.77-1.87,4.14-2.86-1.25-.98-2.5-1.96-3.25-2.55Zm10.05,5.55c1.48-1.97,2.66-2.88,2.88-3.99,.42-2.08-1.08-3.09-2.91-2.62-1.11,.29-2.72,1.53-2.75,2.39-.04,1.06,1.34,2.16,2.79,4.22Z"/><path class="cls-12" d="M86.28,25.32c-19.2,0-38.39,.01-57.59,0-4.83,0-7.29-2.17-7.09-6.13,.14-2.8,1.41-4.77,4.27-5.34,1.45-.29,2.94-.46,4.42-.46,37.39-.02,74.79-.02,112.18-.02,.62,0,1.25-.02,1.87,0,4.38,.22,6.97,2.62,6.81,6.28-.16,3.6-2.61,5.66-6.91,5.66-19.32,.02-38.64,0-57.96,0Z"/><path class="cls-6" d="M20.11,196.5c0-12.85,0-25.71,0-38.56,0-4.42,1.96-6.78,5.57-6.81,3.65-.03,5.7,2.33,5.7,6.68,.01,25.71,0,51.42,0,77.13,0,4.42-1.96,6.78-5.57,6.81-3.65,.03-5.7-2.33-5.7-6.68-.02-12.85,0-25.71,0-38.56Z"/><path class="cls-13" d="M135.27,175.15c3.92,.48,7.83,1.31,11.75,1.38,10.16,.17,18.33-8.22,18.34-18.58,.03-22.45,0-44.9,0-67.36,5.13,1.88,6.94,4.46,6.96,10.51,.06,14.1,.03,28.19,.02,42.29,0,7.73,.14,15.47-.1,23.2-.27,8.58-6.19,14.91-15.54,17.14-8.11,1.93-17.49-1.82-21.42-8.58Z"/><path class="cls-12" d="M173.35,25.31c-2,0-4,.14-5.98-.03-2.98-.25-5.27-1.59-5.71-4.83-.47-3.47,1.08-6.28,4.47-6.59,5.03-.45,10.16-.34,15.21,.05,3.36,.26,5.07,3.09,4.73,6.13-.35,3.04-2.73,5-5.97,5.24-2.23,.17-4.49,.03-6.73,.03Z"/><path class="cls-14" d="M250.3,184.12c-.05-1.24-.1-2.48-.15-3.72,3.01-.71,6.1-1.19,9.03-2.17,15.75-5.25,25.06-18.78,26.04-37.6,15.88,11.95,31.76,23.89,47.62,35.84,4.26,3.21,8.38,6.63,12.78,9.65,2.1,1.44,1.74,2.79,.72,4.37-5.18,8.02-9.77,16.55-15.8,23.89-8.66,10.54-19.41,18.88-31.53,25.36-2.65,1.42-4.3,1.42-6.23-1.16-7.66-10.24-15.53-20.32-23.3-30.48-5.88-7.69-11.73-15.41-17.63-23.09-.34-.44-1.03-.6-1.55-.9Z"/><path class="cls-2" d="M250.25,127.36c-.04-7.82-.08-15.64-.12-23.47,10.02,1.48,18.79,5.32,25.37,13.33,.23,1.07,.26,2.24,.72,3.21,5.66,12.11,5.41,24.12-1.13,35.72-5.49,9.74-13.6,16.25-24.92,18.18,0-6,0-11.99,0-17.99,.72-.14,1.48-.16,2.14-.42,5.72-2.31,9.7-8.38,9.42-14.29-.32-6.84-4.41-11.93-11.49-14.27Z"/><path class="cls-4" d="M336.02,119.67c-.76-1.05-2.58-2.6-3.19-4.54-3.35-10.72-8.54-20.45-15.56-29.14-3.2-3.96-6.93-7.5-10.58-11.07-2.29-2.23-3.08-4.59-1.19-7.24,1.46-2.06,4.68-1.71,7.27,.68,13.65,12.6,23.55,27.57,28.71,45.52,.96,3.32-.9,5.91-5.47,5.79Z"/><path class="cls-9" d="M250.18,174.34c11.32-1.93,19.44-8.44,24.92-18.18,6.54-11.61,6.79-23.61,1.13-35.72-.45-.97-.49-2.13-.72-3.21,6.45,6.47,8.6,14.72,9.71,23.41-.98,18.82-10.29,32.34-26.04,37.6-2.93,.98-6.02,1.46-9.03,2.17,0-2.02,.02-4.04,.02-6.06Z"/><path class="cls-4" d="M294.97,65.92c-4.37-2.69-8.43-4.95-12.15-7.68-.69-.51-.51-3.24,.21-4.33,.72-1.09,3.01-2.32,3.91-1.92,3.91,1.75,7.67,3.91,11.24,6.31,.78,.52,1.05,2.84,.58,3.9-.6,1.34-2.2,2.24-3.79,3.72Z"/><path class="cls-8" d="M250.25,127.36c7.07,2.35,11.17,7.43,11.49,14.27,.28,5.91-3.7,11.98-9.42,14.29-.66,.27-1.43,.29-2.14,.42,.03-9.66,.05-19.33,.08-28.99Z"/><path class="cls-10" d="M117.9,103.62c.74,.58,2,1.57,3.25,2.55-1.37,.99-2.63,2.54-4.14,2.86-3.73,.8-7.58,1.23-11.39,1.36-1,.03-2.05-1.57-3.08-2.43,.72-.83,1.32-2.23,2.17-2.39,4-.78,8.06-1.23,13.2-1.95Z"/><path class="cls-5" d="M127.95,109.17c-1.45-2.05-2.83-3.16-2.79-4.22,.03-.86,1.64-2.11,2.75-2.39,1.84-.47,3.33,.54,2.91,2.62-.22,1.1-1.4,2.01-2.88,3.99Z"/><text class="cls-16" transform="translate(47.83 234.08)"><tspan class="cls-1" x="0" y="0">S</tspan><tspan x="17.64" y="0">tudio One</tspan></text></svg>